<?xml version="1.0" encoding="iso-8859-1"?>
<!-- Generator: Adobe Illustrator 19.0.0, SVG Export Plug-In . SVG Version: 6.00 Build 0)  -->
<svg version="1.1" id="Capa_1" xmlns="http://www.w3.org/2000/svg" xmlns:xlink="http://www.w3.org/1999/xlink" x="0px" y="0px"
	 viewBox="0 0 512 512" style="enable-background:new 0 0 512 512;" xml:space="preserve">
<path style="fill:#EDEDED;" d="M64.333,95.119l61.522-92.885C126.779,0.839,128.339,0,130.009,0h308.517
	c5.509,0,9.974,4.477,9.974,10v492c0,5.523-4.466,10-9.974,10H73.474c-5.509,0-9.974-4.477-9.974-10V97.885
	C63.5,96.901,63.79,95.939,64.333,95.119z"/>
<path style="fill:#D8D8D8;" d="M448.5,10v492c0,5.523-4.466,10-9.974,10h-22.939c5.509,0,9.974-4.477,9.974-10V10
	c0-5.523-4.466-10-9.974-10h22.939C444.034,0,448.5,4.477,448.5,10z"/>
<path style="fill:#C1C1C1;" d="M64.333,95.119l0.487-0.736l61.035-92.15c0.391-0.59,0.9-1.074,1.479-1.443v85.586
	c0,5.523-4.466,10-9.974,10H63.737C63.877,95.934,64.074,95.51,64.333,95.119z"/>
<path style="fill:#7CC3AC;" d="M236.052,380v90h-39.896H156.26h-39.896v-60c0-5.523,4.466-10,9.974-10h19.948
	c5.509,0,9.974,4.477,9.974,10v-80c0-5.523,4.466-10,9.974-10h19.948c5.509,0,9.974,4.477,9.974,10v50c0-5.523,4.466-10,9.974-10
	h19.948C231.586,370,236.052,374.477,236.052,380z"/>
<path style="fill:#61AE9F;" d="M236.052,380v90h-18.5v-90c0-5.523-4.466-10-9.974-10h18.5C231.586,370,236.052,374.477,236.052,380z
	"/>
<path style="fill:#4A7273;" d="M196.155,330v140h-39.896h-39.896v-60c0-5.523,4.466-10,9.974-10h19.948
	c5.509,0,9.974,4.477,9.974,10v-80c0-5.523,4.466-10,9.974-10h19.948C191.69,320,196.155,324.477,196.155,330z"/>
<path style="fill:#FF904E;" d="M156.259,410v60h-39.896v-60c0-5.523,4.477-10,10-10h19.896C151.782,400,156.259,404.477,156.259,410
	z"/>
<path style="fill:#43545C;" d="M313.351,460v10c0,4.142-3.349,7.5-7.48,7.5c-4.132,0-7.481-3.358-7.481-7.5v-10
	c0-4.142,3.349-7.5,7.481-7.5C310.002,452.5,313.351,455.858,313.351,460z"/>
<path style="fill:#4A7273;" d="M336.623,460v10c0,4.142-3.349,7.5-7.48,7.5s-7.48-3.358-7.48-7.5v-10c0-4.142,3.349-7.5,7.48-7.5
	S336.623,455.858,336.623,460z"/>
<path style="fill:#61AE9F;" d="M359.897,460v10c0,4.142-3.349,7.5-7.481,7.5s-7.48-3.358-7.48-7.5v-10c0-4.142,3.349-7.5,7.48-7.5
	S359.897,455.858,359.897,460z"/>
<path style="fill:#7CC3AC;" d="M383.17,460v10c0,4.142-3.349,7.5-7.48,7.5s-7.481-3.358-7.481-7.5v-10c0-4.142,3.349-7.5,7.481-7.5
	S383.17,455.858,383.17,460z"/>
<path style="fill:#D8D8D8;" d="M403.118,460v10c0,4.142-3.349,7.5-7.48,7.5s-7.481-3.358-7.481-7.5v-10c0-4.142,3.349-7.5,7.481-7.5
	S403.118,455.858,403.118,460z"/>
<path style="fill:#842020;" d="M313.351,420v10c0,4.142-3.349,7.5-7.48,7.5c-4.132,0-7.481-3.358-7.481-7.5v-10
	c0-4.142,3.349-7.5,7.481-7.5C310.002,412.5,313.351,415.858,313.351,420z"/>
<path style="fill:#AF2B2B;" d="M335.793,420v10c0,4.142-3.349,7.5-7.48,7.5s-7.481-3.358-7.481-7.5v-10c0-4.142,3.349-7.5,7.481-7.5
	S335.793,415.858,335.793,420z"/>
<path style="fill:#DB3131;" d="M358.234,420v10c0,4.142-3.349,7.5-7.48,7.5s-7.48-3.358-7.48-7.5v-10c0-4.142,3.349-7.5,7.48-7.5
	S358.234,415.858,358.234,420z"/>
<path style="fill:#FE5E47;" d="M380.676,420v10c0,4.142-3.349,7.5-7.481,7.5s-7.48-3.358-7.48-7.5v-10c0-4.142,3.349-7.5,7.48-7.5
	S380.676,415.858,380.676,420z"/>
<path style="fill:#FF904E;" d="M403.118,420v10c0,4.142-3.349,7.5-7.481,7.5s-7.48-3.358-7.48-7.5v-10c0-4.142,3.349-7.5,7.48-7.5
	S403.118,415.858,403.118,420z"/>
<path style="fill:#FFB05F;" d="M355.741,179.903c0,55.228-44.656,100-99.741,100s-99.741-44.772-99.741-100s44.656-100,99.741-100
	S355.741,124.674,355.741,179.903z"/>
<path style="fill:#61AE9F;" d="M185.472,250.614l141.055-141.421c18.05,18.096,29.213,43.096,29.213,70.711
	c0,55.228-44.656,100-99.741,100C228.457,279.903,203.522,268.71,185.472,250.614z"/>
<path style="fill:#4C9089;" d="M355.741,179.903c0,55.228-44.656,100-99.741,100c-3.718,0-7.387-0.211-11-0.608
	c49.909-5.491,88.741-47.891,88.741-99.392c0-21.986-7.082-42.31-19.077-58.817l11.863-11.894
	C344.577,127.289,355.741,152.289,355.741,179.903z"/>
<path style="fill:#F53737;" d="M365.675,176.891c0.046,1.699-1.302,3.109-3.002,3.109H259.99V73.142c0-1.743,1.481-3.11,3.22-2.997
	C319.454,73.804,364.147,119.946,365.675,176.891z"/>
<path style="fill:#DB3131;" d="M365.675,176.891c0.045,1.699-1.302,3.109-3.002,3.109H344.05
	c0.045-51.659-33.932-95.358-80.702-109.844C319.527,73.882,364.149,119.993,365.675,176.891z"/>
<path style="fill:#FFECA1;" d="M305.87,179.903c0,27.614-22.328,50-49.87,50s-49.87-22.386-49.87-50s22.328-50,49.87-50
	S305.87,152.289,305.87,179.903z"/>
<path style="fill:#FFB05F;" d="M273.455,179.903c0,4.142-3.349,7.5-7.481,7.5h-19.948c-4.132,0-7.48-3.358-7.48-7.5
	s3.349-7.5,7.48-7.5h19.948C270.106,172.403,273.455,175.761,273.455,179.903z"/>
<path style="fill:#A0A0A0;" d="M259.491,470c0,4.142-3.349,7.5-7.48,7.5H100.404c-4.132,0-7.481-3.358-7.481-7.5
	s3.349-7.5,7.481-7.5H252.01C256.142,462.5,259.491,465.858,259.491,470z M359.73,287.5h19.948c4.132,0,7.481-3.358,7.481-7.5
	s-3.349-7.5-7.481-7.5H359.73c-4.132,0-7.48,3.358-7.48,7.5S355.599,287.5,359.73,287.5z M359.73,67.5h19.948
	c4.132,0,7.481-3.358,7.481-7.5s-3.349-7.5-7.481-7.5H359.73c-4.132,0-7.48,3.358-7.48,7.5S355.599,67.5,359.73,67.5z
	 M349.757,362.5h-43.886c-4.132,0-7.481,3.358-7.481,7.5s3.349,7.5,7.481,7.5h43.886c4.132,0,7.48-3.358,7.48-7.5
	S353.888,362.5,349.757,362.5z M389.653,332.5h-83.782c-4.132,0-7.481,3.358-7.481,7.5s3.349,7.5,7.481,7.5h83.782
	c4.132,0,7.481-3.358,7.481-7.5S393.785,332.5,389.653,332.5z M100.404,187.403h19.948c4.132,0,7.481-3.358,7.481-7.5
	s-3.349-7.5-7.481-7.5h-19.948c-4.132,0-7.481,3.358-7.481,7.5S96.272,187.403,100.404,187.403z"/>
<g>
</g>
<g>
</g>
<g>
</g>
<g>
</g>
<g>
</g>
<g>
</g>
<g>
</g>
<g>
</g>
<g>
</g>
<g>
</g>
<g>
</g>
<g>
</g>
<g>
</g>
<g>
</g>
<g>
</g>
</svg>
