<?xml version="1.0" encoding="utf-8"?>
<!-- Generator: Adobe Illustrator 22.0.1, SVG Export Plug-In . SVG Version: 6.00 Build 0)  -->
<svg version="1.1" id="katman_1" xmlns="http://www.w3.org/2000/svg" xmlns:xlink="http://www.w3.org/1999/xlink" x="0px" y="0px"
	 viewBox="0 0 48 42.4" style="enable-background:new 0 0 48 42.4;" xml:space="preserve">
<g>
	<g>
		<path d="M45,42.4H3c-1.7,0-3-1.3-3-3V12.7c0-1.7,1.3-3,3-3h13.3v3.9h15.3V9.7H45c1.7,0,3,1.3,3,3v26.7C48,41.1,46.7,42.4,45,42.4z
			 M3,11.7c-0.6,0-1,0.4-1,1v26.7c0,0.6,0.4,1,1,1h42c0.6,0,1-0.4,1-1V12.7c0-0.6-0.4-1-1-1H33.7v3.9H14.3v-3.9H3z"/>
	</g>
	<g>
		<path d="M32.7,15.6H15.3c-0.6,0-1-0.4-1-1V8.2c0-1.1,0.9-2,2-2h15.3c1.1,0,2,0.9,2,2v6.4C33.7,15.1,33.2,15.6,32.7,15.6z
			 M16.3,13.6h15.3V8.2c0,0,0,0,0,0l-15.3,0V13.6z"/>
	</g>
	<g>
		<path d="M24,8.2c-2.2,0-4.1-1.8-4.1-4.1C19.9,1.8,21.7,0,24,0s4.1,1.8,4.1,4.1C28.1,6.3,26.2,8.2,24,8.2z M24,2
			c-1.1,0-2.1,0.9-2.1,2.1s0.9,2.1,2.1,2.1s2.1-0.9,2.1-2.1S25.1,2,24,2z"/>
	</g>
	<g>
		<g>
			<path d="M12.3,28c-2.2,0-4-1.8-4-4s1.8-4,4-4s4,1.8,4,4S14.5,28,12.3,28z M12.3,22c-1.1,0-2,0.9-2,2s0.9,2,2,2s2-0.9,2-2
				S13.4,22,12.3,22z"/>
		</g>
		<g>
			<path d="M17.6,36.1H7c-1.1,0-2-0.9-2-2V31c0-2.8,2.2-5,5-5h4.6c2.8,0,5,2.2,5,5v3.1C19.6,35.2,18.7,36.1,17.6,36.1z M10,28
				c-1.7,0-3,1.3-3,3v3.1h10.6V31c0-1.7-1.3-3-3-3H10z"/>
		</g>
	</g>
	<g>
		<g>
			<path d="M42,35H24.3c-0.6,0-1-0.4-1-1s0.4-1,1-1H42c0.6,0,1,0.4,1,1S42.6,35,42,35z"/>
		</g>
		<g>
			<path d="M42,29H24.3c-0.6,0-1-0.4-1-1s0.4-1,1-1H42c0.6,0,1,0.4,1,1S42.6,29,42,29z"/>
		</g>
		<g>
			<path d="M42,23H24.3c-0.6,0-1-0.4-1-1s0.4-1,1-1H42c0.6,0,1,0.4,1,1S42.6,23,42,23z"/>
		</g>
	</g>
</g>
</svg>
