<?xml version="1.0" encoding="utf-8"?>
<!-- Generator: Adobe Illustrator 22.0.1, SVG Export Plug-In . SVG Version: 6.00 Build 0)  -->
<svg version="1.1" id="katman_1" xmlns="http://www.w3.org/2000/svg" xmlns:xlink="http://www.w3.org/1999/xlink" x="0px" y="0px"
	 viewBox="0 0 50 44.9" style="enable-background:new 0 0 50 44.9;" xml:space="preserve">
<g>
	<path d="M47.5,39.9h-45C1.1,39.9,0,41,0,42.4s1.1,2.5,2.5,2.5h45c1.4,0,2.5-1.1,2.5-2.5C50,41,48.9,39.9,47.5,39.9z"/>
	<path d="M34.1,20.4l-6,4.5V2.5C28.1,1.1,27,0,25.6,0s-2.5,1.1-2.5,2.5v22.3l-6-4.4c-0.4-0.3-1-0.5-1.5-0.5c-0.8,0-1.5,0.4-2,1
		c-0.8,1.1-0.6,2.7,0.5,3.5l10.1,7.4c0.9,0.7,2.1,0.7,3,0l10-7.4c1.1-0.8,1.3-2.4,0.5-3.5C36.7,19.8,35.2,19.6,34.1,20.4z"/>
</g>
</svg>
