<?xml version="1.0" encoding="utf-8"?>
<!-- Generator: Adobe Illustrator 22.0.1, SVG Export Plug-In . SVG Version: 6.00 Build 0)  -->
<svg version="1.1"
	 id="katman_1" xmlns:cc="http://creativecommons.org/ns#" xmlns:dc="http://purl.org/dc/elements/1.1/" xmlns:inkscape="http://www.inkscape.org/namespaces/inkscape" xmlns:rdf="http://www.w3.org/1999/02/22-rdf-syntax-ns#" xmlns:sodipodi="http://sodipodi.sourceforge.net/DTD/sodipodi-0.dtd" xmlns:svg="http://www.w3.org/2000/svg"
	 xmlns="http://www.w3.org/2000/svg" xmlns:xlink="http://www.w3.org/1999/xlink" x="0px" y="0px" viewBox="0 0 80 80"
	 style="enable-background:new 0 0 80 80;" xml:space="preserve">
<g transform="translate(0,-952.36216)">
	<path d="M40,952.4c-11,0-20,9-20,20c0,7.4,4,13.8,10,17.3c-6.8,1.7-13.2,5.2-18.2,10.2c-7.4,7.3-11.8,17.4-11.8,27.8
		c0,0.6,0,1.3,0,1.9c0.1,1.6,1.4,2.9,3,2.9h56c1.7,0,3-1.3,3-3c0-1.7-1.3-3-3-3c0,0-0.1,0-0.1,0H6.1c0.3-8.2,3.9-16.4,9.8-22.2
		c6.3-6.1,15.2-9.8,24.1-9.8s17.8,3.6,24.1,9.8s9.9,14.8,9.9,23.5c0,0,0,0,0,0c0,0.5,0,1.1,0,1.6c-0.1,1.7,1.2,3.1,2.9,3.1
		s3.1-1.2,3.1-2.9c0-0.6,0-1.3,0-1.9c0-10.3-4.3-20.5-11.8-27.8c-5-4.9-11.4-8.4-18.2-10.2c6-3.5,10-9.9,10-17.3
		C60,961.4,51,952.4,40,952.4z M40,958.4c7.8,0,14,6.2,14,14c0,7.8-6.2,14-14,14c-7.8,0-14-6.2-14-14C26,964.6,32.2,958.4,40,958.4z
		 M68,1026.4c-1.7,0-3,1.3-3,3s1.3,3,3,3s3-1.3,3-3S69.7,1026.4,68,1026.4z"/>
</g>
</svg>
