<?xml version="1.0" encoding="utf-8"?>
<!-- Generator: Adobe Illustrator 22.0.1, SVG Export Plug-In . SVG Version: 6.00 Build 0)  -->
<svg version="1.1" id="katman_1" xmlns="http://www.w3.org/2000/svg" xmlns:xlink="http://www.w3.org/1999/xlink" x="0px" y="0px"
	 viewBox="0 0 78.8 82.7" style="enable-background:new 0 0 78.8 82.7;" xml:space="preserve">
<path d="M42.9,0C23.2,0,7.1,16.1,7.1,35.9c0,1.1,0.1,2.2,0.2,3.3C2.8,40.7,0,43.3,0,46.4v27.9c0,4.8,6.8,8.5,15.9,8.5
	c6.5,0,11.9-1.9,14.4-4.7c0.6,0,1.2,0.1,1.8,0.1c7.9,0,14.1-2.7,15.6-6.6C65.3,69.1,78.8,54,78.8,35.9C78.8,16.1,62.7,0,42.9,0z
	 M28.9,74.2c0,2.6-5.3,5.5-12.9,5.5C8.3,79.7,3,76.8,3,74.2v-1.9c2.8,2.1,7.5,3.4,12.9,3.4c5.5,0,10.1-1.3,12.9-3.4V74.2z
	 M28.9,67.3c0,2.6-5.3,5.5-12.9,5.5C8.3,72.7,3,69.8,3,67.3v-1.9c2.8,2.1,7.5,3.4,12.9,3.4c5.5,0,10.1-1.3,12.9-3.4V67.3z
	 M28.9,60.3c0,2.6-5.3,5.5-12.9,5.5C8.3,65.8,3,62.9,3,60.3v-1.9c2.8,2.1,7.5,3.4,12.9,3.4c5.5,0,10.1-1.3,12.9-3.4V60.3z
	 M28.9,53.3c0,2.6-5.5,5.5-12.9,5.5C8.3,58.8,3,55.9,3,53.3v-1.9c2.8,2.1,7.5,3.4,12.9,3.4c5.5,0,10.1-1.3,12.9-3.4V53.3z
	 M15.9,51.8C8.3,51.8,3,48.9,3,46.4c0-2.6,5.3-5.5,12.9-5.5c7.6,0,12.9,2.9,12.9,5.5C28.9,48.9,23.3,51.8,15.9,51.8z M45.1,69.6
	c0,2.6-5.3,5.5-12.9,5.5c-0.1,0-0.3,0-0.4,0c0-0.3,0.1-0.5,0.1-0.8V71c0.1,0,0.2,0,0.3,0c5.5,0,10.1-1.3,12.9-3.4V69.6z M45.1,62.6
	c0,2.6-5.3,5.5-12.9,5.5c-0.1,0-0.2,0-0.3,0v-4c0.1,0,0.2,0,0.3,0c5.5,0,10.1-1.3,12.9-3.4V62.6z M32.2,61.1c-0.1,0-0.2,0-0.3,0
	V50.2c0.1,0,0.2,0,0.3,0c7.6,0,12.9,2.9,12.9,5.5S39.8,61.1,32.2,61.1z M48.1,68.3V55.6c0-4.8-6.8-8.5-15.9-8.5c-0.1,0-0.2,0-0.3,0
	v-0.8c0-4.8-6.8-8.5-15.9-8.5c-2.1,0-4,0.2-5.7,0.5c-0.1-0.8-0.1-1.7-0.1-2.6C10.1,17.7,24.8,3,42.9,3s32.9,14.7,32.9,32.9
	C75.8,52.2,63.8,65.9,48.1,68.3z M44.4,9.6h-3v27.8h21v-3h-18V9.6z"/>
</svg>
