<?xml version="1.0" encoding="utf-8"?>
<!-- Generator: Adobe Illustrator 22.0.1, SVG Export Plug-In . SVG Version: 6.00 Build 0)  -->
<svg version="1.1" xmlns="http://www.w3.org/2000/svg" xmlns:xlink="http://www.w3.org/1999/xlink" x="0px" y="0px"
	 viewBox="0 0 84.7 86" style="enable-background:new 0 0 84.7 86;" xml:space="preserve">
<g id="katman_2">
</g>
<g id="katman_1">
	<path d="M67.3,3c-3.6,3.6-3.9,9.1-1.1,13.1L54.1,28.2c-2.1-1.5-4.7-2.4-7.5-2.4c-3,0-5.8,1-8.1,2.7L30,20c1.8-3,1.4-7-1.2-9.6
		c-3.1-3.1-8-3.1-11.1,0s-3.1,8,0,11.1c2.6,2.6,6.6,3,9.6,1.2l8.5,8.5c-1.3,1.8-2.1,3.9-2.4,6.1H20.2c-0.9-4.7-5-8.3-10-8.3
		C4.6,29,0,33.6,0,39.2s4.6,10.2,10.2,10.2c4.9,0,9-3.5,10-8.2h13.3c1,5.6,5.5,10,11.2,10.8v13.8c-4.8,0.9-8.4,5-8.4,10
		c0,5.6,4.6,10.2,10.2,10.2c5.6,0,10.2-4.6,10.2-10.2c0-4.9-3.5-9-8.1-10V52.1c6.4-1,11.2-6.5,11.2-13.1c0-3.1-1.1-6-2.9-8.2
		L69,18.7c3.9,2.5,9.3,2.1,12.7-1.4c4-4,4-10.4,0-14.4C77.8-1,71.3-1,67.3,3z M50.4,44.3c-0.6,0.7-1.3,1.2-2.2,1.4
		c-0.4,0.1-0.6,0.3-0.5,0.7c0,0.4,0,0.8,0,1.2c0,0.3-0.2,0.5-0.5,0.5c-0.4,0-0.8,0-1.3,0c-0.4,0-0.5-0.2-0.5-0.6c0-0.3,0-0.6,0-0.9
		c0-0.6,0-0.7-0.6-0.8c-0.8-0.1-1.5-0.3-2.2-0.6c-0.6-0.3-0.6-0.4-0.5-1c0.1-0.4,0.2-0.9,0.4-1.3c0.2-0.5,0.3-0.6,0.7-0.3
		c0.8,0.4,1.6,0.6,2.5,0.7c0.6,0.1,1.1,0,1.6-0.2c1-0.4,1.1-1.5,0.3-2.2c-0.3-0.2-0.6-0.4-0.9-0.5c-0.9-0.4-1.7-0.7-2.5-1.1
		c-1.3-0.8-2.1-1.9-2-3.4c0.1-1.8,1.1-2.9,2.8-3.5c0.7-0.2,0.7-0.2,0.7-0.9c0-0.2,0-0.5,0-0.7c0-0.5,0.1-0.6,0.6-0.6
		c0.2,0,0.3,0,0.5,0c1.1,0,1.1,0,1.1,1.1c0,0.8,0,0.8,0.8,0.9c0.6,0.1,1.2,0.3,1.8,0.5c0.3,0.1,0.4,0.4,0.3,0.7
		c-0.1,0.5-0.3,1-0.4,1.5c-0.1,0.5-0.3,0.5-0.7,0.3c-0.9-0.4-1.8-0.6-2.8-0.6c-0.3,0-0.5,0-0.7,0.2c-0.8,0.4-1,1.3-0.3,1.9
		c0.4,0.3,0.8,0.5,1.2,0.7c0.7,0.3,1.5,0.6,2.2,1C51.4,39.5,52,42.3,50.4,44.3z"/>
</g>
</svg>
